<?xml version="1.0" standalone="no"?>
<!DOCTYPE svg PUBLIC "-//W3C//DTD SVG 20010904//EN"
 "http://www.w3.org/TR/2001/REC-SVG-20010904/DTD/svg10.dtd">
<svg version="1.0" xmlns="http://www.w3.org/2000/svg"
 width="1013.000000pt" height="320.000000pt" viewBox="0 0 1013.000000 320.000000"
 preserveAspectRatio="xMidYMid meet">
<metadata>
Created by potrace 1.16, written by Peter Selinger 2001-2019
</metadata>
<g transform="translate(0.000000,320.000000) scale(0.100000,-0.100000)"
fill="#000000" stroke="none">
<path d="M2241 2719 c-86 -15 -179 -65 -247 -133 -103 -103 -143 -204 -151
-377 -12 -262 79 -449 260 -535 90 -42 152 -54 281 -54 278 1 449 123 511 365
22 88 20 282 -5 379 -44 173 -144 283 -306 340 -59 21 -263 30 -343 15z m178
-253 c15 -8 35 -25 43 -38 68 -105 76 -372 15 -481 -23 -41 -72 -77 -105 -77
-32 0 -78 46 -109 108 -27 54 -28 63 -28 202 0 129 2 150 22 193 27 59 77 107
110 107 13 0 37 -7 52 -14z"/>
<path d="M1190 2713 c-67 -13 -152 -64 -217 -130 -113 -115 -163 -244 -163
-423 0 -273 134 -462 371 -525 121 -33 303 -13 424 45 99 47 201 136 191 165
-4 11 -44 61 -90 110 l-84 90 -56 -53 c-68 -64 -125 -92 -191 -92 -62 0 -103
23 -142 82 -43 62 -53 100 -53 198 0 77 4 94 31 148 39 78 78 112 129 112 78
0 117 -35 142 -127 l12 -43 138 0 138 0 0 215 0 215 -124 0 -124 0 -12 -29
-12 -30 -40 25 c-77 49 -170 65 -268 47z"/>
<path d="M6726 2710 c-83 -13 -171 -57 -238 -119 l-58 -53 0 76 0 76 -205 0
-205 0 0 -100 0 -100 35 0 36 0 -62 -121 -61 -120 -57 118 -58 118 29 3 28 3
0 100 0 99 -260 0 -260 0 0 -100 0 -100 34 0 c33 0 35 -3 185 -250 l151 -251
0 -74 0 -75 -45 0 -45 0 0 -100 0 -100 245 0 245 0 0 100 0 100 -45 0 -45 0 0
71 0 72 90 156 c150 263 197 336 214 339 14 3 14 -2 -4 -43 -35 -82 -50 -160
-50 -263 0 -255 86 -420 265 -508 86 -42 148 -54 279 -54 278 1 449 123 511
365 33 131 13 383 -40 484 l-16 31 36 0 c21 0 35 -5 35 -12 10 -315 22 -522
33 -563 53 -192 217 -305 443 -305 202 0 319 62 385 204 47 101 59 189 59 447
l0 229 55 0 55 0 0 -325 0 -325 -45 0 -45 0 0 -100 0 -100 250 0 250 0 0 100
0 100 -45 0 -45 0 0 111 c0 97 2 110 16 105 9 -3 26 -6 39 -6 49 0 63 -26 79
-154 13 -97 21 -128 44 -165 51 -83 114 -111 252 -111 163 0 212 57 234 273
l6 57 -59 0 -60 0 -7 -35 c-3 -19 -12 -39 -19 -45 -16 -13 -20 -4 -39 98 -15
78 -55 141 -107 168 -34 17 -37 30 -8 39 30 10 97 73 116 109 20 39 22 153 4
217 -27 97 -108 158 -238 178 -45 7 -252 11 -562 11 l-491 0 0 -100 0 -100 40
0 c47 0 43 32 31 -265 -10 -221 -20 -266 -73 -310 -40 -34 -96 -34 -136 0 -53
44 -63 89 -73 310 -12 297 -16 265 31 265 l40 0 0 100 0 100 -240 0 -240 0 0
-97 -1 -98 -21 30 c-55 75 -138 136 -234 169 -59 21 -251 29 -338 16z m2116
-236 c38 -8 88 -67 88 -105 0 -71 -44 -109 -142 -123 l-48 -7 0 127 0 126 38
-6 c20 -4 49 -9 64 -12z m-1943 -18 c15 -8 35 -25 43 -38 68 -105 76 -372 15
-481 -23 -41 -72 -77 -105 -77 -32 0 -78 46 -109 108 -27 54 -28 63 -28 202 0
129 2 150 22 193 27 59 77 107 110 107 13 0 37 -7 52 -14z"/>
<path d="M2960 2600 l0 -100 50 0 50 0 0 -325 0 -325 -50 0 -50 0 0 -100 0
-100 288 0 c158 0 316 5 352 10 89 14 193 67 257 131 58 58 115 164 132 247
14 68 14 206 0 274 -29 138 -124 260 -255 325 -114 56 -163 62 -486 63 l-288
0 0 -100z m513 -121 c137 -38 198 -244 138 -467 -7 -26 -28 -60 -54 -86 -41
-43 -66 -54 -154 -70 l-33 -5 0 319 0 320 33 0 c17 0 49 -5 70 -11z"/>
<path d="M4040 2600 l0 -100 50 0 50 0 0 -325 0 -325 -50 0 -50 0 0 -100 0
-100 460 0 460 0 1 153 c0 83 3 145 6 137 3 -8 14 -39 25 -67 13 -37 25 -53
37 -53 14 0 274 115 459 203 20 9 22 17 22 91 0 45 3 97 6 116 l6 36 -225 108
c-124 60 -232 106 -240 103 -15 -6 -80 -114 -91 -153 -6 -19 10 -29 163 -100
94 -43 167 -82 163 -86 -4 -4 -77 -39 -162 -78 l-155 -72 -142 2 -143 1 0 -71
0 -70 -115 0 -115 0 0 120 0 120 140 0 140 0 0 105 0 105 -140 0 -140 0 0 100
0 100 115 0 115 0 0 -70 0 -70 135 0 135 0 0 170 0 170 -460 0 -460 0 0 -100z"/>
<path d="M620 2436 c-30 -13 -134 -61 -231 -108 l-177 -85 6 -114 c3 -67 9
-117 16 -121 33 -22 449 -208 465 -208 19 0 55 69 67 129 6 29 5 30 -162 111
l-169 82 95 45 c52 25 128 60 168 78 39 19 72 39 72 46 0 15 -82 169 -89 169
-3 -1 -31 -11 -61 -24z"/>
<path d="M3110 1330 l0 -100 50 0 50 0 0 -325 0 -325 -50 0 -50 0 0 -100 0
-100 285 0 285 0 0 100 0 100 -75 0 -75 0 0 95 0 95 140 0 140 0 0 100 0 100
-140 0 -140 0 0 130 0 130 110 0 110 0 0 -70 0 -70 135 0 135 0 0 170 0 170
-455 0 -455 0 0 -100z"/>
<path d="M4060 1330 l0 -100 35 0 c21 0 35 -5 35 -12 10 -315 22 -522 33 -563
53 -192 217 -305 443 -305 202 0 319 62 385 204 47 101 59 189 59 447 l0 229
40 0 40 0 0 100 0 100 -225 0 -225 0 0 -100 0 -100 40 0 40 0 -6 -182 c-6
-202 -17 -313 -35 -352 -16 -35 -68 -66 -109 -66 -41 0 -93 31 -109 66 -18 39
-29 150 -35 352 l-6 182 40 0 40 0 0 100 0 100 -240 0 -240 0 0 -100z"/>
<path d="M5170 1230 l0 -200 115 0 115 0 0 100 0 100 60 0 60 0 0 -325 0 -325
-60 0 -60 0 0 -100 0 -100 280 0 280 0 0 100 0 100 -60 0 -60 0 0 325 0 325
55 0 55 0 0 -100 0 -100 115 0 115 0 0 200 0 200 -505 0 -505 0 0 -200z"/>
<path d="M6220 1330 l0 -100 35 0 c21 0 35 -5 35 -12 10 -315 22 -522 33 -563
53 -192 217 -305 443 -305 202 0 319 62 385 204 47 101 59 189 59 447 l0 229
40 0 40 0 0 100 0 100 -225 0 -225 0 0 -100 0 -100 40 0 40 0 -6 -182 c-6
-202 -17 -313 -35 -352 -16 -35 -68 -66 -109 -66 -41 0 -93 31 -109 66 -18 39
-29 150 -35 352 l-6 182 40 0 40 0 0 100 0 100 -240 0 -240 0 0 -100z"/>
<path d="M7330 1331 l0 -101 45 0 45 0 0 -325 0 -325 -45 0 -45 0 0 -100 0
-100 250 0 250 0 0 100 0 100 -45 0 -45 0 0 111 c0 97 2 110 16 105 9 -3 26
-6 39 -6 49 0 63 -26 79 -154 18 -143 43 -193 120 -241 45 -27 59 -30 148 -33
117 -5 136 -1 178 35 39 32 65 91 74 163 4 30 9 72 12 93 l6 37 -61 0 -60 0
-7 -35 c-3 -19 -12 -39 -19 -45 -16 -13 -20 -4 -39 98 -15 78 -55 141 -107
168 -34 17 -37 30 -8 39 30 10 97 73 116 109 21 40 22 155 3 221 -20 71 -86
135 -165 160 -52 16 -103 19 -397 22 l-338 5 0 -101z m512 -117 c38 -8 88 -67
88 -105 0 -71 -44 -109 -142 -123 l-48 -7 0 127 0 126 38 -6 c20 -4 49 -9 64
-12z"/>
<path d="M8440 1330 l0 -100 50 0 50 0 0 -325 0 -325 -50 0 -50 0 0 -100 0
-100 460 0 460 0 0 170 0 170 -135 0 -135 0 0 -70 0 -70 -115 0 -115 0 0 120
0 120 140 0 140 0 0 105 0 105 -140 0 -140 0 0 100 0 100 115 0 115 0 0 -70 0
-70 135 0 135 0 0 170 0 170 -460 0 -460 0 0 -100z"/>
</g>
</svg>
